<?xml version="1.0" encoding="utf-8"?>
<!-- Generator: Adobe Illustrator 24.1.1, SVG Export Plug-In . SVG Version: 6.00 Build 0)  -->
<svg version="1.1" id="Capa_1" xmlns="http://www.w3.org/2000/svg" xmlns:xlink="http://www.w3.org/1999/xlink" x="0px" y="0px"
	 viewBox="0 0 857 174" style="enable-background:new 0 0 857 174;" xml:space="preserve">
<style type="text/css">
	.st0{fill:#FFFFFF;}
	.st1{fill-rule:evenodd;clip-rule:evenodd;fill:#FFFFFF;}
</style>
<g id="Capa_x0020_1">
	<path class="st0" d="M409.9,151.8h-11.7L384.5,2.4h8.9L403.4,121l0.6,13.9h0.4l0.6-13.7l9.4-118.8h11.1l9.2,118.8l0.8,13.7h0.4
		l0.6-13.7l9.9-118.8h9l-13.7,149.4h-11.7l-9.4-113.2l-0.4-13.9h-0.4l-0.6,13.9L409.9,151.8L409.9,151.8z M497.3,151.8h-32.6V2.4
		h32.4v8h-23.3v60.9h20.1v8h-20.1v64.3h23.5L497.3,151.8L497.3,151.8z M507.2,151.8V2.4h17.9c5.8,0,10.3,1.6,13.7,4.8
		c3.3,3.2,5,7.9,5,13.9v35.4c0,8.3-3.1,13.7-9.2,16.1v0.2c7.4,2,11.1,7.9,11.1,17.5v41.6c0,6.4-1.6,11.4-4.8,14.8
		c-3.2,3.4-8.1,5.1-14.7,5.1H507.2L507.2,151.8z M525.1,69.5c3.2,0,5.7-1.1,7.4-3.3c1.8-2.2,2.6-5.2,2.6-8.9V21.7
		c0-3.6-0.9-6.4-2.7-8.4s-4.4-2.9-7.7-2.9h-8.4v59.1H525.1L525.1,69.5z M525.5,143.7c3.8,0,6.6-1.1,8.5-3.2c1.9-2.1,2.9-5.2,2.9-9
		V90.8c0-4.4-1-7.7-3-9.9c-2-2.1-4.8-3.2-8.4-3.2h-9.2v65.9L525.5,143.7L525.5,143.7z M600.8,153.8c-13.5,0-20.3-8.9-20.3-26.5V27.1
		c0-17.7,6.8-26.5,20.3-26.5c6.7,0,11.6,2,14.8,6.1c3.1,4.1,4.7,9.4,4.7,16v31.2h-8.6V22.7c0-9.2-3.6-13.9-10.9-13.9
		c-7.6,0-11.5,5.8-11.5,17.5v101.5c0,11.8,3.8,17.7,11.5,17.7c3.6,0,6.4-1.2,8.4-3.6c2-2.4,3-6,3-10.7V88h-11.9v-8.2h20.1V130
		c0,7.1-1.6,12.8-4.7,17.2C612.7,151.5,607.7,153.7,600.8,153.8L600.8,153.8z M664.4,151.8h-30.8V2.4h9v141.1h21.7V151.8z
		 M689.3,153.8c-6.7,0-11.7-2.3-15.2-6.8c-3.4-4.6-5.1-11.1-5.1-19.7V26.7c0-8.6,1.7-15.1,5.1-19.5c3.4-4.4,8.5-6.6,15.2-6.6
		c6.8,0,12,2.2,15.4,6.6c3.4,4.4,5.1,10.9,5.1,19.5v100.5c0,8.7-1.7,15.3-5.1,19.8S696.1,153.8,689.3,153.8z M689.3,145.5
		c7.8,0,11.7-6,11.7-17.9V26.3c0-11.7-3.9-17.5-11.7-17.5c-7.6,0-11.5,5.8-11.5,17.5v101.3C677.8,139.5,681.6,145.5,689.3,145.5z
		 M723.1,151.8V2.4H741c5.8,0,10.3,1.6,13.7,4.8c3.3,3.2,5,7.9,5,13.9v35.4c0,8.3-3.1,13.7-9.2,16.1v0.2c7.4,2,11.1,7.9,11.1,17.5
		v41.6c0,6.4-1.6,11.4-4.8,14.8c-3.2,3.4-8.1,5.1-14.7,5.1H723.1L723.1,151.8z M741,69.5c3.2,0,5.7-1.1,7.4-3.3
		c1.8-2.2,2.6-5.2,2.6-8.9V21.7c0-3.6-0.9-6.4-2.7-8.4s-4.4-2.9-7.7-2.9h-8.4v59.1H741L741,69.5z M741.4,143.7
		c3.8,0,6.6-1.1,8.5-3.2c1.9-2.1,2.9-5.2,2.9-9V90.8c0-4.4-1-7.7-3-9.9c-2-2.1-4.8-3.2-8.4-3.2h-9.2v65.9L741.4,143.7L741.4,143.7z
		 M815.8,151.8h-9.2l-4-35.4H781l-4.2,35.4h-8.9L785.6,2.4H798L815.8,151.8L815.8,151.8z M790.6,33.4l-8.9,75h19.7l-8.4-75l-1-11.1
		h-0.4L790.6,33.4L790.6,33.4z M855.5,151.8h-30.8V2.4h9v141.1h21.7V151.8z"/>
	<polygon class="st1" points="857,167.7 857,174 357.7,174 357.7,1.1 364,1.1 364,167.7 	"/>
	<path class="st0" d="M28.1,153.8c-9.1,0-16.1-2.4-20.9-7.1S0,134.9,0,125.6V99.1h18.7v26.5c0,3.3,0.7,6.1,2.2,8.2
		c1.5,2.1,3.9,3.2,7.2,3.2c2.7,0,4.8-0.9,6.2-2.6s2.2-4,2.2-6.8V99.1c0-3.3-0.6-6.1-1.7-8.1c-1.1-2.1-2.7-3.8-4.6-5.2
		c-1.9-1.4-5.1-3.3-9.4-5.5c-7.1-3.8-12.2-7.7-15.3-11.9S0.9,58.3,0.8,50.5V24.9c0-7.8,2.5-13.9,7.4-18.3S19.7,0,27.7,0
		c8.9,0,15.6,2.5,20.4,7.4s7.1,11.7,6.9,20.4v23.9H37V27.8c0-7.2-3-10.9-9-10.9c-2.7,0-4.7,0.7-6,2.2c-1.3,1.5-2,3.4-2,5.8v25.3
		c0,4,1,7.1,2.9,9.2c1.9,2.1,5.1,4.3,9.5,6.7c8.3,4.1,14.3,8.6,17.9,13.3c3.6,4.7,5.4,11.1,5.4,19.3v29.1c0,8-2.5,14.4-7.5,19
		S36.4,153.8,28.1,153.8L28.1,153.8z M95.7,151.6H76.6V19.7H59.3V2.2h53.9v17.5H95.7V151.6z M147.8,153.8
		c-18.8,0-28.1-10.9-28.1-32.6V2.2h19.1V123c0,9.1,3,13.7,9,13.7c5.9,0,8.9-4.6,8.9-13.7V2.2h18.9V121c0,11.1-2.3,19.4-6.8,24.7
		C164.1,151.1,157.2,153.8,147.8,153.8L147.8,153.8z M187.3,151.6V2.2h26.7c9.9,0,17.2,3,21.9,8.9c4.7,6,7,15.3,7,27.8v75.8
		c0,12.6-2.3,21.9-7,27.8c-4.7,6-12,8.9-21.9,8.9L187.3,151.6L187.3,151.6z M212.5,134.9c3.9,0,6.8-1.3,8.7-3.9
		c1.9-2.6,2.9-7.1,2.9-13.6V36.2c0-6.3-1-10.7-2.9-13.4s-4.9-3.9-8.7-3.9h-6v116H212.5z M273.6,151.6h-19.1V2.2h19.1V151.6z
		 M313.4,153.8c-9.2,0-16.3-2.8-21-8.4c-4.8-5.6-7.1-13.8-7.1-24.5V33c0-10.7,2.4-18.9,7.1-24.5c4.8-5.6,11.7-8.4,21-8.4
		c9.4,0,16.5,2.8,21.2,8.4c4.8,5.6,7.1,13.8,7.1,24.5v87.8c0,10.9-2.4,19.1-7.1,24.6C329.9,151,322.8,153.8,313.4,153.8L313.4,153.8
		z M313.4,136.7c6.3,0,9.4-4.6,9.4-13.9V30.8c0-9.1-3.1-13.7-9.4-13.7c-6.2,0-9.2,4.6-9.2,13.7v92.1
		C304.2,132.1,307.3,136.7,313.4,136.7z"/>
</g>
</svg>
