<?xml version="1.0" encoding="UTF-8"?>
<!DOCTYPE svg PUBLIC "-//W3C//DTD SVG 1.1//EN" "http://www.w3.org/Graphics/SVG/1.1/DTD/svg11.dtd">
<!-- Creator: CorelDRAW 2017 -->
<svg xmlns="http://www.w3.org/2000/svg" xml:space="preserve" width="302.316mm" height="61.3775mm" version="1.1" style="shape-rendering:geometricPrecision; text-rendering:geometricPrecision; image-rendering:optimizeQuality; fill-rule:evenodd; clip-rule:evenodd"
viewBox="0 0 30780 6249"
 xmlns:xlink="http://www.w3.org/1999/xlink">
 <defs>
  <style type="text/css">
   <![CDATA[
    .fil1 {fill:#4B4B4D}
    .fil0 {fill:#00AFEF;fill-rule:nonzero}
    .fil2 {fill:#2A334B;fill-rule:nonzero}
   ]]>
  </style>
 </defs>
 <g id="Capa_x0020_1">
  <metadata id="CorelCorpID_0Corel-Layer"/>
  <path class="fil0" d="M14721 5451l-419 0 -491 -5365 318 0 361 4260 22 498 14 0 22 -491 339 -4267 397 0 332 4267 29 491 14 0 22 -491 354 -4267 325 0 -491 5365 -419 0 -339 -4065 -14 -498 -14 0 -22 498 -339 4065zm3141 0l-1170 0 0 -5365 1162 0 0 289 -838 0 0 2188 722 0 0 289 -722 0 0 2311 845 0 0 289zm354 0l0 -5365 643 0c207,0 371,58 491,173 120,116 181,282 181,498l0 1271c0,298 -111,491 -332,578l0 7c265,72 397,282 397,628l0 1495c0,231 -58,408 -173,531 -116,123 -291,184 -527,184l-679 0zm643 -2953c116,0 205,-40 267,-119 63,-79 94,-187 94,-321l0 -1278c0,-130 -32,-230 -97,-300 -65,-70 -158,-105 -278,-105l-303 0 0 2123 318 0zm14 2664c135,0 237,-39 307,-116 70,-77 105,-185 105,-325l0 -1459c0,-159 -36,-277 -108,-354 -72,-77 -173,-116 -303,-116l-332 0 0 2368 332 0zm2708 361c-486,0 -729,-318 -729,-953l0 -3596c0,-635 243,-953 729,-953 241,0 418,73 531,220 113,147 170,338 170,574l0 1119 -310 0 0 -1119c0,-332 -130,-498 -390,-498 -274,0 -412,209 -412,628l0 3646c0,424 137,635 412,635 130,0 231,-43 303,-130 72,-87 108,-214 108,-383l0 -1552 -426 0 0 -296 722 0 0 1805c0,255 -57,461 -170,617 -113,156 -292,235 -538,235zm2282 -72l-1105 0 0 -5365 325 0 0 5069 780 0 0 296zm895 72c-241,0 -422,-82 -545,-245 -123,-164 -184,-400 -184,-708l0 -3610c0,-308 61,-542 184,-700 123,-159 304,-238 545,-238 245,0 430,79 552,238 123,159 184,392 184,700l0 3610c0,313 -61,550 -184,711 -123,161 -307,242 -552,242zm0 -296c279,0 419,-214 419,-643l0 -3639c0,-419 -140,-628 -419,-628 -274,0 -412,209 -412,628l0 3639c0,428 137,643 412,643zm1213 224l0 -5365 643 0c207,0 371,58 491,173 120,116 181,282 181,498l0 1271c0,298 -111,491 -332,578l0 7c265,72 397,282 397,628l0 1495c0,231 -58,408 -173,531 -116,123 -291,184 -527,184l-679 0zm643 -2953c116,0 205,-40 267,-119 63,-79 94,-187 94,-321l0 -1278c0,-130 -32,-230 -97,-300 -65,-70 -158,-105 -278,-105l-303 0 0 2123 318 0zm14 2664c135,0 237,-39 307,-116 70,-77 105,-185 105,-325l0 -1459c0,-159 -36,-277 -108,-354 -72,-77 -173,-116 -303,-116l-332 0 0 2368 332 0zm2672 289l-332 0 -144 -1271 -773 0 -152 1271 -318 0 635 -5365 448 0 635 5365zm-903 -4253l-318 2693 708 0 -303 -2693 -36 -397 -14 0 -36 397zm2332 4253l-1105 0 0 -5365 325 0 0 5069 780 0 0 296z"/>
  <polygon class="fil1" points="30780,6024 30780,6249 12848,6249 12848,38 13074,38 13074,6024 "/>
  <path class="fil2" d="M1011 5524c-327,0 -578,-85 -751,-256 -173,-171 -260,-422 -260,-755l0 -953 672 0 0 953c0,120 26,219 79,296 53,77 140,116 260,116 96,0 171,-31 224,-94 53,-63 79,-144 79,-245l0 -1025c0,-120 -20,-218 -61,-292 -41,-75 -96,-137 -166,-188 -70,-51 -182,-117 -336,-199 -255,-135 -438,-277 -549,-426 -111,-149 -168,-363 -173,-643l0 -917c0,-279 89,-498 267,-657 178,-159 412,-238 700,-238 318,0 562,88 733,264 171,176 254,420 249,733l0 859 -650 0 0 -859c0,-260 -108,-390 -325,-390 -96,0 -168,26 -217,79 -48,53 -72,123 -72,209l0 910c0,144 35,254 105,329 70,75 184,155 343,242 298,149 513,308 643,477 130,168 195,400 195,693l0 1047c0,289 -90,516 -271,682 -181,166 -420,249 -718,249zm2426 -79l-686 0 0 -4737 -621 0 0 -628 1935 0 0 628 -628 0 0 4737zm1870 79c-674,0 -1011,-390 -1011,-1170l0 -4274 686 0 0 4339c0,327 108,491 325,491 212,0 318,-164 318,-491l0 -4339 679 0 0 4267c0,400 -82,696 -245,888 -164,193 -414,289 -751,289zm1422 -79l0 -5365 960 0c356,0 619,107 787,321 168,214 253,548 253,1000l0 2722c0,452 -84,786 -253,1000 -168,214 -431,321 -787,321l-960 0zm903 -599c140,0 244,-47 314,-141 70,-94 105,-256 105,-487l0 -2917c0,-226 -35,-386 -105,-480 -70,-94 -175,-141 -314,-141l-217 0 0 4166 217 0zm2195 599l-686 0 0 -5365 686 0 0 5365zm1430 79c-332,0 -584,-101 -755,-303 -171,-202 -256,-496 -256,-881l0 -3155c0,-385 85,-679 256,-881 171,-202 422,-303 755,-303 337,0 591,101 762,303 171,202 256,496 256,881l0 3155c0,390 -85,685 -256,885 -171,200 -425,300 -762,300zm0 -614c226,0 339,-166 339,-498l0 -3307c0,-327 -113,-491 -339,-491 -221,0 -332,164 -332,491l0 3307c0,332 111,498 332,498z"/>
 </g>
</svg>
